<svg xmlns="http://www.w3.org/2000/svg" height="512" viewBox="0 -15 496 495" width="512"><path d="M472.96 176.598C447.56 74.218 354.079.5 248 .5S48.441 74.219 23.04 176.598c-12.782.52-23.04 11-23.04 23.902v64c0 12.902 10.258 23.383 23.04 23.902C48.44 390.782 141.921 464.5 248 464.5s199.559-73.719 224.96-176.098c12.782-.52 23.04-11 23.04-23.902v-64c0-12.902-10.258-23.383-23.04-23.902zM248 16.5c97.39 0 183.344 66.754 208.398 160h-50.117c-23.715-67.2-86.504-112-158.281-112s-134.566 44.8-158.281 112H39.602C64.656 83.254 150.609 16.5 248 16.5zm82.656 272h58.64c-22.823 57.84-78.257 96-141.296 96s-118.473-38.16-141.29-96h58.642c11.496 37.656 40.906 67.832 80.359 79.664l2.289.688 2.297-.688c39.445-11.832 68.863-42.008 80.36-79.664zM248 208.5c36.23 0 63.09 14.68 72 20.273v24.2c0 45.59-28.832 85.144-72 99.144-43.168-14-72-53.547-72-99.144v-24.2c8.93-5.601 35.785-20.273 72-20.273zm24-14.063c-7.48-1.183-15.473-1.937-24-1.937s-16.52.754-24 1.938V168.5c0-13.23 10.77-24 24-24s24 10.77 24 24zm16 3.391V168.5c0-22.055-17.945-40-40-40s-40 17.945-40 40v29.328a157.997 157.997 0 0 0-16 5.215V168.5c0-30.871 25.121-56 56-56s56 25.129 56 56v34.535a158.053 158.053 0 0 0-16-5.207zM248 96.5c-39.695 0-72 32.297-72 72v8h-69.29c22.817-57.84 78.25-96 141.29-96s118.473 38.16 141.29 96H320v-8c0-39.703-32.305-72-72-72zm-232 168v-64c0-4.414 3.594-8 8-8h152v17.809c-7.777 4.113-12.313 7.421-12.8 7.793L160 220.5v32.48c0 6.633.535 13.16 1.559 19.52H24c-4.406 0-8-3.586-8-8zm232 184c-97.39 0-183.344-66.754-208.398-160h50.117c23.715 67.2 86.504 112 158.281 112s134.566-44.8 158.281-112h50.117c-25.054 93.246-111.007 160-208.398 160zm232-184c0 4.414-3.594 8-8 8H334.441A122.93 122.93 0 0 0 336 252.98V220.5l-3.2-2.398c-.495-.372-5.03-3.68-12.8-7.793V192.5h152c4.406 0 8 3.586 8 8zm0 0" data-original="#000000" class="active-path" data-old_color="#e96b17" fill="#e96b17"/><path d="M432 208.5h16v16h-16zm0 0M432 240.5h16v16h-16zm0 0M448 224.5h16v16h-16zm0 0M416 224.5h16v16h-16zm0 0M368 208.5h16v16h-16zm0 0M368 240.5h16v16h-16zm0 0M384 224.5h16v16h-16zm0 0M352 224.5h16v16h-16zm0 0M112 208.5h16v16h-16zm0 0M112 240.5h16v16h-16zm0 0M128 224.5h16v16h-16zm0 0M96 224.5h16v16H96zm0 0M48 208.5h16v16H48zm0 0M48 240.5h16v16H48zm0 0M64 224.5h16v16H64zm0 0M32 224.5h16v16H32zm0 0M256 40.5a8 8 0 1 1-16 0 8 8 0 0 1 16 0zm0 0M117.895 102.395c3.128-3.125 3.128-8.192 0-11.31-3.125-3.128-8.192-3.128-11.31 0-3.128 3.126-3.128 8.192 0 11.31 3.118 3.12 8.185 3.12 11.31 0zm0 0M106.574 362.605c-3.125 3.125-3.125 8.192 0 11.31 3.13 3.128 8.196 3.128 11.313 0 3.129-3.126 3.129-8.192 0-11.31-3.117-3.12-8.184-3.12-11.313 0zm0 0M256 424.5a8 8 0 1 1-16 0 8 8 0 0 1 16 0zm0 0M378.105 362.605c-3.128 3.125-3.128 8.192 0 11.31 3.125 3.128 8.192 3.128 11.31 0 3.128-3.126 3.128-8.192 0-11.31-3.118-3.12-8.185-3.12-11.31 0zm0 0M389.426 102.395c3.125-3.125 3.125-8.192 0-11.31-3.13-3.128-8.196-3.128-11.313 0-3.129 3.126-3.129 8.192 0 11.31 3.117 3.12 8.184 3.12 11.313 0zm0 0M224 288.332V328.5h48v-40.168c9.969-7.512 16-19.328 16-31.832 0-22.055-17.945-40-40-40s-40 17.945-40 40c0 12.504 6.031 24.32 16 31.832zm24-55.832c13.23 0 24 10.77 24 24 0 8.543-4.496 16.266-12.023 20.648L256 279.461V312.5h-16v-33.04l-3.977-2.312C228.496 272.766 224 265.043 224 256.5c0-13.23 10.77-24 24-24zm0 0" data-original="#000000" class="active-path" data-old_color="#e96b17" fill="#e96b17"/></svg>