<svg xmlns="http://www.w3.org/2000/svg" viewBox="0 0 512 512"><path d="M446.4 33.1h-46.9c-1-18.5-16.3-33.1-35-33.1H147.3c-18.7 0-34 14.6-35 33.1H65.4c-19 0-34.5 15.6-34.5 34.9v88.9c0 12.6 6.1 27.6 14.9 36.5l24.4 24.8c8.9 9 23.9 15.3 36.6 15.3h5.5v12.1c0 17.7 11.6 39.2 26.2 49l75.1 49.9-10.8 65.2h-49.3c-7.6 0-15 5.7-17 13.1l-20.1 72.4c-1.2 4.2-.4 8.5 2.1 11.8 2.5 3.3 6.4 5.1 10.8 5.1h253.1c4.4 0 8.3-1.8 10.8-5.1s3.2-7.6 2.1-11.8l-20.1-72.4c-2-7.4-9.4-13.1-17-13.1h-49.3l-10.8-65.2 75.3-50c14.7-9.8 26.4-31.2 26.4-48.9v-12.1h5.2c12.7 0 27.8-6.3 36.6-15.3l24.5-24.8c8.8-9 15-24 15-36.5V68c0-19.2-15.6-34.9-34.7-34.9zM112.2 188.2h-5.3c-1.2-.2-3.7-1.2-4.7-2l-24.1-24.5c-.8-1.1-1.9-3.8-2-5.1V78.3h36.1v109.9zM332.8 146l-34.1 24.9c-5.4 3.9-8.1 12.3-6 18.6l13 40.1c2 6.3-.7 8.3-6 4.4l-34.1-24.7c-5.4-3.9-14.1-3.9-19.5 0L212 234.1c-5.4 3.9-8.1 1.9-6-4.4l13-40.1c2-6.3-.7-14.6-6-18.5L178.9 146c-5.4-3.9-4.3-7.4 2.3-7.4h42.1c6.6 0 13.7-4.8 15.8-11.1l13-39.9c2-6.3 5.4-6.2 7.4.1l13 39.7c2 6.3 9.1 11.1 15.8 11.1h42.1c6.7 0 7.8 3.6 2.4 7.5zM436 156.7c-.2 1.3-1.3 4-2.1 5.1l-24.2 24.5c-1 .8-3.5 1.8-4.8 2h-5v-110H436v78.4z" fill="#e96b17"/></svg>