<svg xmlns="http://www.w3.org/2000/svg" viewBox="0 0 512 512"><path d="M353.6 176.7c0 55.4-44.9 100.3-100.3 100.3S153 232.1 153 176.7 197.9 76.4 253.2 76.4c55.5.1 100.4 45 100.4 100.3zm101.6 295c-2.2 2.2-5.6 2.7-8.2 1.1l-73.1-42.7c-.8 8.3-1.8 20.4-3 32.6-1 10.8-2 21.6-2.8 29.7-.4 4.1-.7 7.5-1 9.8-.5 4.3-1 9.6-7 9.7h-.1c-1.8 0-3.5-.7-4.8-1.9-1.1-1-1.8-2.5-2-4-2.4-8.3-39.9-94.4-70.5-164l-6 4.5c-2.1 1.6-4.5 3-6.9 4-10.8 4.7-23.6 3.5-33.4-3.2l-10.6-7.3c-29.5 69.1-64.5 152.1-66.8 160.2-.2 1.5-.9 3-2 4-1.3 1.2-3 2-4.7 2h-.1c-6-.1-6.6-5.4-7.1-9.6-.3-2.4-.7-5.8-1.1-9.8-.9-8.1-2-18.9-3.1-29.6-1.3-12.1-2.5-24.3-3.3-32.5L65 468c-2.7 1.6-6.1 1.2-8.2-1-2.2-2.2-2.6-5.6-1-8.2L145 312.4c-12.4-3.6-21.9-13.9-24.2-26.9l-8.6-47.1-28.7-38.2c-8.9-11.9-9.2-28-.8-40.3l27.2-39.3 6.7-47.4c1.7-11.7 9.4-22 20.3-26.7 2.4-1.1 5-1.9 7.6-2.3l47.1-8.6 38.2-28.7c2.1-1.6 4.5-3 6.9-4 11-4.8 23.5-3.6 33.4 3.2l39.3 27.2 47.4 6.7c14.7 2.1 26.4 13.3 29 27.9l8.6 47.1 28.7 38.2c8.9 11.9 9.2 28 .8 40.3l-27.2 39.3-6.7 47.4c-1.7 11.7-9.4 22-20.3 26.7-2.4 1.1-5 1.8-7.6 2.3l-2 .4 96 153.8c1.7 2.7 1.3 6.1-.9 8.3zm-86.4-295c0-63.7-51.7-115.4-115.4-115.4S138 113 138 176.7s51.7 115.4 115.4 115.4 115.4-51.6 115.4-115.4z" fill="#e96b17"/></svg>