<svg xmlns="http://www.w3.org/2000/svg" viewBox="0 0 509.528 509.528" width="512" height="512"><path d="M409.737 407.568a7.503 7.503 0 0 0-7.172 5.304H176.439c-.85-17.595-15.429-31.649-33.231-31.649h-35.557c-18.347 0-33.272 14.926-33.272 33.272v11.752c0 18.347 14.926 33.272 33.272 33.272h35.557c17.802 0 32.381-14.053 33.231-31.648h225.798v66.656H49.173V410.84a7.5 7.5 0 0 0-15 0v91.187a7.5 7.5 0 0 0 7.5 7.5h368.064a7.5 7.5 0 0 0 7.5-7.5v-86.96a7.5 7.5 0 0 0-7.5-7.499zm-248.256 18.68c0 10.076-8.197 18.272-18.272 18.272h-35.557c-10.076 0-18.272-8.197-18.272-18.272v-11.752c0-10.076 8.197-18.272 18.272-18.272h35.557c10.076 0 18.272 8.197 18.272 18.272v11.752z" data-original="#000000" class="active-path" data-old_color="#e96b17" fill="#e96b17"/><path d="M374.672 197.426c-42.268 0-78.531 26.185-93.434 63.182H144.042v-16.503c3.248.8 6.568 1.213 9.904 1.212 4.525 0 9.076-.74 13.5-2.23 10.65-3.587 19.25-11.075 24.216-21.085 4.965-10.009 5.725-21.387 2.138-32.038-3.587-10.651-11.075-19.251-21.085-24.217a7.5 7.5 0 0 0-6.666 13.438c6.42 3.185 11.227 8.713 13.536 15.567 2.308 6.854 1.825 14.164-1.36 20.584s-8.713 11.227-15.567 13.536c-6.853 2.308-14.164 1.825-20.584-1.36a7.464 7.464 0 0 0-5.053-.581c-.16-.01-.318-.024-.48-.024a7.5 7.5 0 0 0-7.5 7.5v68.814c0 9.243-7.52 16.763-16.763 16.763s-16.763-7.52-16.763-16.763v-96.1-17.219c0-16.131 7.903-31.441 21.14-40.955a7.499 7.499 0 0 0 3.123-6.09v-29.629h85.04v32.007c0 2.238 1 4.359 2.726 5.784 11.71 9.667 18.426 23.839 18.426 38.883v38.633a7.5 7.5 0 0 0 15 0v-38.633c0-18.334-7.667-35.659-21.152-48.075v-28.599h19.786a7.5 7.5 0 0 0 7.5-7.5V60.555a7.5 7.5 0 0 0-7.5-7.5h-19.786V7.5a7.5 7.5 0 0 0-7.5-7.5h-103.15a7.5 7.5 0 0 0-7.5 7.5v23.055a7.5 7.5 0 0 0 15 0V15h88.151v38.055H85.288a7.5 7.5 0 0 0-7.5 7.5v45.173a7.5 7.5 0 0 0 7.5 7.5h19.492v25.927c-15.262 12.414-24.263 31.103-24.263 50.746v70.706H41.673a7.5 7.5 0 0 0-7.5 7.5V380.84a7.5 7.5 0 0 0 15 0v-28.208H290.07c17.947 27.752 49.165 46.157 84.602 46.157 55.516 0 100.682-45.166 100.682-100.682s-45.165-100.681-100.682-100.681zM92.788 68.055h139.317v30.173H92.788V68.055zm183.739 207.553a100.657 100.657 0 0 0-2.537 22.5c0 2.603.099 5.184.294 7.738h-130.36c.071-.867.117-1.74.117-2.625v-27.613h132.486zm-196.01 0v27.613c0 .885.046 1.758.117 2.625H49.173v-30.238h31.344zm-31.344 62.025v-16.787h36.698c5.703 8.517 15.411 14.138 26.409 14.138s20.706-5.62 26.409-14.138H276.58a99.887 99.887 0 0 0 5.498 16.787H49.173zm325.499 46.157c-47.245 0-85.682-38.437-85.682-85.682s38.437-85.682 85.682-85.682 85.682 38.437 85.682 85.682-38.436 85.682-85.682 85.682z" data-original="#000000" class="active-path" data-old_color="#e96b17" fill="#e96b17"/><path d="M357.557 304.63h35.037a7.5 7.5 0 0 0 7.5-7.5v-61.626a7.5 7.5 0 0 0-7.5-7.5h-35.037a7.5 7.5 0 0 0-7.5 7.5v61.626a7.5 7.5 0 0 0 7.5 7.5zm7.5-61.626h20.037v46.626h-20.037v-46.626zM375.075 311.095c-15.242 0-27.642 12.4-27.642 27.642 0 15.242 12.4 27.643 27.642 27.643s27.642-12.4 27.642-27.643c0-15.241-12.4-27.642-27.642-27.642zm0 40.285c-6.971 0-12.642-5.671-12.642-12.643 0-6.971 5.671-12.642 12.642-12.642s12.642 5.671 12.642 12.642c0 6.972-5.671 12.643-12.642 12.643z" data-original="#000000" class="active-path" data-old_color="#e96b17" fill="#e96b17"/></svg>