<svg id="Capa_1" xmlns="http://www.w3.org/2000/svg" viewBox="0 0 512 512"><style>.st0{fill:#e96b17}</style><path class="st0" d="M506.2 143.7L388 25.5c-3.9-3.9-8.5-5.8-13.9-5.8-2.5 0-5 .5-7.7 1.5-8 3.5-12 9.5-12 18.2v59.1h-49.2c-21.7 0-41.9 1.1-60.5 3.4s-34.9 5.4-49.1 9.4c-14.2 4-26.9 9-38.3 14.9-11.4 5.9-21.1 12.3-29.1 18.9-8 6.7-15 14.3-21.1 22.8-6.1 8.5-10.9 16.9-14.5 25.1-3.6 8.2-6.5 17.2-8.6 27.1-2.2 9.8-3.6 19.1-4.3 27.7-.7 8.6-1.1 18-1.1 28 0 11.5 1.8 24 5.4 37.5 3.6 13.5 7.5 25.2 11.8 35.1 4.3 9.8 9.4 20 15.2 30.6 5.8 10.6 9.9 17.6 12.2 21.1 2.3 3.5 4.4 6.7 6.5 9.5 2.1 2.7 4.7 4 8 4 .8 0 2-.2 3.7-.6 4.7-2.3 6.8-5.7 6.2-10.5-9.2-68.9-1.6-117.4 22.8-145.5 23.6-26.9 68.5-40.3 134.8-40.3h49.2v59.1c0 8.6 4 14.7 12 18.2 2.7 1 5.2 1.5 7.7 1.5 5.5 0 10.2-1.9 13.9-5.8l118.2-118.2c3.9-3.9 5.8-8.5 5.8-13.8 0-5.5-2-10.1-5.8-14z"/><path class="st0" d="M426.8 315.1c-3.9-1.6-7.5-.8-10.8 2.5-5.3 4.9-10.9 8.7-16.6 11.4-3.7 2-5.5 5-5.5 8.9v65.9c0 13.5-4.8 25.1-14.5 34.8-9.6 9.6-21.2 14.5-34.8 14.5h-256c-13.5 0-25.1-4.8-34.8-14.5-9.6-9.6-14.5-21.2-14.5-34.8v-256c0-13.5 4.8-25.1 14.5-34.8 9.6-9.6 21.2-14.5 34.8-14.5h34.5c1.2 0 2.9-.4 4.9-1.2 11.5-7 25.1-13.1 40.9-18.5 5.3-1 8-4.3 8-9.8 0-2.7-1-5-2.9-6.9-1.9-1.9-4.3-2.9-6.9-2.9H88.6c-24.4 0-45.3 8.7-62.6 26-17.3 17.2-26 38.1-26 62.5v256c0 24.4 8.7 45.3 26 62.6 17.3 17.3 38.2 26 62.6 26h256c24.4 0 45.3-8.7 62.6-26 17.3-17.3 26-38.2 26-62.6V324c0-4.1-2.1-7.1-6.4-8.9z"/></svg>