<svg xmlns="http://www.w3.org/2000/svg" height="512" viewBox="-56 0 496 496" width="512"><path d="M381.648 66.336L317.664 2.352A7.953 7.953 0 0 0 312 0H8C3.574 0 0 3.586 0 8v480c0 4.414 3.574 8 8 8h368c4.426 0 8-3.586 8-8V72a7.953 7.953 0 0 0-2.352-5.664zM320 27.313L356.688 64H320zM368 480H16V16h288v56c0 4.414 3.574 8 8 8h56zm0 0" data-original="#000000" class="active-path" data-old_color="#e96b17" fill="#e96b17"/><path d="M32 32h256v16H32zm0 0M32 64h256v16H32zm0 0M32 96h256v16H32zm0 0M176 376c0 48.52 39.48 88 88 88s88-39.48 88-88-39.48-88-88-88-88 39.48-88 88zm160 0c0 39.695-32.297 72-72 72s-72-32.305-72-72 32.297-72 72-72 72 32.305 72 72zm0 0" data-original="#000000" class="active-path" data-old_color="#e96b17" fill="#e96b17"/><path d="M256 320v48h-48v16h48v48h16v-48h48v-16h-48v-48zm0 0M32 448h16v16H32zm0 0M64 448h16v16H64zm0 0M96 448h16v16H96zm0 0M32 256h96v16H32zm0 0M32 288h96v16H32zm0 0M32 320h96v16H32zm0 0M32 352h96v16H32zm0 0" data-original="#000000" class="active-path" data-old_color="#e96b17" fill="#e96b17"/></svg>