<svg id="Capa_1" xmlns="http://www.w3.org/2000/svg" viewBox="0 0 512 512"><style>.st0{fill:#e96b17}</style><g id="Layer_5_58_"><path class="st0" d="M383.1 157.4c-15.3-6.1-19.7-9.8-19.7-16.5 0-5.4 4.1-11.6 15.5-11.6 10.1 0 17.9 4 18 4 .8.4 1.7.7 2.6.7 2.2 0 4.2-1.3 5-3.4l2.8-7.1c1-2.6-.5-4.8-2.4-5.7-6.2-2.7-18.4-4.8-18.5-4.8-.2 0-.9-.2-.9-1v-10.3c0-3.1-2.6-5.6-5.8-5.6h-5c-3.2 0-5.8 2.5-5.8 5.6v10.8c0 .8-.9 1.2-1.2 1.3-15.4 3.7-25 14.9-25 29.1 0 17.7 14.6 25.7 30.4 31.7 12.6 5 17.8 10 17.8 17.4 0 8-7.3 13.6-17.8 13.6-8.9 0-21-5.7-21.1-5.7-.8-.4-1.6-.6-2.4-.6-2.3 0-4.3 1.4-5.1 3.5l-2.7 7.2c-.9 2.7.5 4.9 2.4 5.8 7.4 3.9 21.8 6.1 22.4 6.2.2 0 1 .3 1 1.1v10.8c0 3.1 2.6 5.6 5.8 5.6h5.2c3.2 0 5.8-2.5 5.8-5.6v-11.4c0-1.1.8-1.2.9-1.2 16.4-3.7 26.5-15.7 26.5-30.7-.1-15.2-8.6-25.2-28.7-33.2z"/><path class="st0" d="M376.6 32.5c-74.8 0-135.4 60.6-135.4 135.4 0 74.8 60.6 135.4 135.4 135.4 74.8 0 135.4-60.6 135.4-135.4 0-74.8-60.6-135.4-135.4-135.4zm0 239.4c-57.4 0-104-46.6-104-104s46.6-104 104-104 104 46.6 104 104-46.5 104-104 104z"/><g><path class="st0" d="M484.5 368.9c-28.8 15.9-68.4 30.6-107.9 36.8-35.1 5.5-101.2-7.8-101.2-23.5 0-5.9 58 14.7 93 5.3 26.9-7.2 23.1-32.3 8.4-35.6-14.5-3.3-99.7-34.5-136.1-35.6-17.1-.5-59.5 6-79.9 9.3-7 1.1-11.4 1-11.9 7.7-2 31.2-6.1 95-8.2 128.3 0 .7.9 10.2 8.7 3.5 8.6-7.3 20.5-15.4 31.6-12.9 17.4 3.9 168 31.5 188.8 26.7 29.7-6.9 113.8-56.8 130-72.3 25.1-23.9 5.6-49.3-15.3-37.7zM107.4 324.3l-78.9-3.9c-6.1-.3-12.3 4.3-13.8 10.2L.3 460.9c-1.5 5.9 2.2 10.9 8.3 11.2H96c6.1.2 11.5-4.5 11.9-10.6l9.6-125.5c.6-6.2-4-11.4-10.1-11.7zM61 454.8c-12 0-21.8-9.8-21.8-21.8S49 411.2 61 411.2 82.8 421 82.8 433 73 454.8 61 454.8z"/></g></g></svg>