<svg id="Capa_1" xmlns="http://www.w3.org/2000/svg" viewBox="0 0 512 512"><style>.st0{fill:#e96b17}</style><g id="icons_1_"><path class="st0" d="M156 310c-21.1-24.2-24.1-62.2-38.5-80.5-12.1-15.3-31.2-7.9-33.5 5.5-3.5 20.8 18.7 82 30 101.6 2.8 4.9-2.2 13.9-10.9 6.1-8.7-7.8-43.1-87-29.7-139.2 6.6-25.6-10.4-52.3-32.1-38.8-21.7 13.5-34.4 126.1-2.1 192 27.2 55.6 84.7 92.4 94.6 98.6 6.8 4.3 9.5 29.1 10.6 44.5.5 7.3 2.5 12.2 10.5 12.2h51.9c13 0 13.5-7.8 13.5-11.6-.1-98.2 5.2-110.7-64.3-190.4zM356 310c21.1-24.2 24.1-62.2 38.5-80.5 12.1-15.3 31.2-7.9 33.5 5.5 3.5 20.8-18.7 82-30 101.6-2.8 4.9 2.2 13.9 10.9 6.1 8.7-7.8 43.1-87 29.7-139.2-6.6-25.6 10.4-52.3 32.1-38.8 21.7 13.5 34.4 126.1 2.1 192-27.2 55.6-84.7 92.4-94.6 98.6-6.8 4.3-9.5 29.1-10.6 44.5-.5 7.3-2.5 12.2-10.5 12.2h-51.9c-13 0-13.5-7.8-13.5-11.6.1-98.2-5.2-110.7 64.3-190.4zM323.7 0c-26.7 0-51 10.7-68.7 27.9C237.3 10.7 213 0 186.3 0c-54.4 0-98.5 44.1-98.5 98.5 0 21.1 6.7 40.7 18 56.7 4.5 7 9.9 13.5 16.1 19.1L224 276.6c10.2 10.2 20.5 20.5 30.7 20.5h.6c10.2 0 20.5-10.2 30.7-20.5l102.1-102.3c6.2-5.6 11.6-12 16.1-19.1 11.3-16 18-35.6 18-56.7 0-54.4-44.1-98.5-98.5-98.5z"/></g></svg>