<svg xmlns="http://www.w3.org/2000/svg" height="512" viewBox="-30 0 512 512.001" width="512"><path d="M451.004 153.926a10.267 10.267 0 0 0-3.55-3.586 45.388 45.388 0 0 0-23.352-6.477 45.35 45.35 0 0 0-22.934 6.235c-3.965 2.32-7.465 5.207-10.477 8.492a230.586 230.586 0 0 0-13.941-51.836c.152.004.3.016.453.016h.004c11.652 0 22.727-4.415 31.18-12.426a45.104 45.104 0 0 0 12.55-44.477 10.247 10.247 0 0 0-2.476-4.418 10.282 10.282 0 0 0-4.266-2.676 45.326 45.326 0 0 0-13.957-2.199c-11.652 0-22.726 4.414-31.183 12.43a45.057 45.057 0 0 0-11.094 16.66 232.003 232.003 0 0 0-7.805-11.687c4.59-15.473.614-32.207-10.562-43.938C331.094 5.117 319.144 0 306.813 0c-3.973 0-7.934.523-11.747 1.547A10.232 10.232 0 0 0 290.652 4a10.243 10.243 0 0 0-2.703 4.273 45.075 45.075 0 0 0 10.235 45.07c8.5 8.923 20.449 14.04 32.785 14.04 2.36 0 4.707-.207 7.035-.574a214.833 214.833 0 0 1 24.773 45.754 45.196 45.196 0 0 0-16.382-3.54c-16.555-.43-32.118 8.329-40.368 22.602a10.244 10.244 0 0 0-1.379 4.863 10.28 10.28 0 0 0 1.118 4.922 45.236 45.236 0 0 0 40.312 24.633c10.617 0 20.738-3.781 28.727-10.324 4.129 24.261 4.148 49.148-.047 73.504a37.796 37.796 0 0 0-10.086-4.32c-3.14-30.344-28.918-54.09-60.149-54.09-22.308 0-41.82 12.125-52.3 30.101L201.664 12.727a10.504 10.504 0 0 0-5.277-6.575 10.55 10.55 0 0 0-8.399-.558 44.25 44.25 0 0 0-23.234 19.476c-5.238 9.078-7.047 19.48-5.242 29.676-8.364 3.785-15.325 10.05-20.004 18.149-5.88 10.183-7.45 22.035-4.43 33.39a138.227 138.227 0 0 0-23.984 43.453l-83.54-83.32c-2.077-2.07-4.84-3.184-7.827-3.047a10.503 10.503 0 0 0-7.485 3.606A50.213 50.213 0 0 0 0 99.855c0 12.278 4.387 23.875 12.402 33.04-6.449 8.628-9.937 19.05-9.937 30.011 0 13.453 5.254 26.098 14.789 35.61l.36.359c-3.673 22.184-2.63 45.309 3.066 67.027a7.506 7.506 0 0 0 9.16 5.352 7.504 7.504 0 0 0 5.351-9.16c-4.238-16.149-5.632-33.153-4.164-49.844l45.196 45.078a7.474 7.474 0 0 0 5.297 2.192 7.5 7.5 0 0 0 5.297-12.809l-58.973-58.816c-6.692-6.676-10.38-15.551-10.38-24.989 0-6.894 1.97-13.492 5.641-19.148l102.368 102.101a7.5 7.5 0 0 0 10.593-10.62L25.38 124.843C18.687 118.168 15 109.293 15 99.855c0-6.835 1.98-13.476 5.645-19.144L273.66 333.07c-57.117 51.421-145.55 49.699-200.566-5.176-9.989-9.961-18.434-21.227-25.102-33.48a7.497 7.497 0 0 0-10.172-3.005 7.499 7.499 0 0 0-3.004 10.172c7.36 13.523 16.672 25.953 27.684 36.934 15.96 15.918 34.469 27.77 54.227 35.578l-28.348 28.273-65.406 17.48c-5.97 1.594-9.977 7.22-9.532 13.38a85.072 85.072 0 0 0 24.77 54.046c14.484 14.446 33.719 23.215 54.207 24.7.297.02.594.027.89.027a12.918 12.918 0 0 0 12.458-9.547l12.043-44.84c23.058 10.09 48.32 13.953 73.617 11.188 28.8-3.149 55.652-14.711 77.656-33.442a7.505 7.505 0 0 0 .848-10.574 7.505 7.505 0 0 0-10.575-.848c-40.054 34.102-96.19 40.528-143.015 16.375a7.484 7.484 0 0 0-6.469-.195 7.491 7.491 0 0 0-4.215 4.914l-13.922 51.832c-16.21-1.574-31.402-8.707-42.933-20.21a70.043 70.043 0 0 1-20.25-42.77l65.636-17.543a7.449 7.449 0 0 0 3.36-1.934l35.066-34.976a162.098 162.098 0 0 0 43.492 5.949c41.141 0 82.293-15.625 113.61-46.863a7.497 7.497 0 0 0 2.203-5.309 7.513 7.513 0 0 0-2.203-5.312l-52.719-52.579 22.477-22.418a7.494 7.494 0 0 0 1.828-7.644 45.156 45.156 0 0 1-2.254-14.102c0-25 20.402-45.336 45.476-45.336 25.075 0 45.473 20.336 45.473 45.336 0 24.48-19.973 44.805-44.52 45.309-2.374.047-4.581 1.215-5.956 3.148s-1.758 4.403-1.028 6.66c12.102 37.391 6.227 79.086-15.715 111.532a7.498 7.498 0 0 0 2.012 10.414 7.499 7.499 0 0 0 10.414-2.012c22.785-33.691 30.063-76.308 20.113-115.687 12.243-2.192 23.496-8.098 32.371-17.118.528-.535 1.032-1.086 1.54-1.64h13.625a213.03 213.03 0 0 1-23.207 43.336 7.498 7.498 0 0 0 6.152 11.777 7.488 7.488 0 0 0 6.164-3.219c11.207-16.125 20.226-33.593 26.937-51.89h3.645c2.758 0 5.348-1.075 7.285-3.008a10.388 10.388 0 0 0 3.04-7.309c0-7.027-1.938-13.61-5.298-19.25a232.73 232.73 0 0 0 5.266-39.043 45.337 45.337 0 0 0 14.316 2.34c8.051 0 15.985-2.152 22.934-6.23 14.328-8.399 22.879-23.914 22.324-40.461a10.256 10.256 0 0 0-1.406-4.875zm-71.629-90.04a30.214 30.214 0 0 1 20.863-8.312c2.29 0 4.559.254 6.79.766a30.119 30.119 0 0 1-8.958 27.113 30.203 30.203 0 0 1-20.867 8.317c-2.285 0-4.558-.258-6.785-.77a30.105 30.105 0 0 1 8.957-27.113zm-34.066 87.145a30.243 30.243 0 0 1-24.868-14.133c5.633-8.011 14.914-12.89 24.813-12.89a30.248 30.248 0 0 1 25.633 14.145c-5.778 8.218-15.387 13.14-25.578 12.878zM309.047 42.996a30.08 30.08 0 0 1-7.543-27.527 30.27 30.27 0 0 1 5.308-.469c8.25 0 16.239 3.422 21.922 9.387a30.083 30.083 0 0 1 8.012 16.531 229.98 229.98 0 0 0-7.434-8.203 7.498 7.498 0 0 0-10.601-.258 7.5 7.5 0 0 0-.258 10.605 214.845 214.845 0 0 1 8.067 8.985c-6.622-.992-12.82-4.168-17.473-9.05zm-82.668 221.727L123.12 161.734a123.455 123.455 0 0 1 16.906-37.007l13.567 50.503a7.506 7.506 0 0 0 9.191 5.297 7.499 7.499 0 0 0 5.297-9.187l-18.492-68.824c-2.02-7.52-.985-15.375 2.91-22.121 2.633-4.56 6.355-8.243 10.82-10.786l4.922 18.336a7.504 7.504 0 0 0 9.192 5.297 7.504 7.504 0 0 0 5.296-9.191s-7.761-28.875-7.89-29.367c-2.02-7.516-.988-15.371 2.902-22.118a29.276 29.276 0 0 1 10.824-10.78l55.547 206.765a63.687 63.687 0 0 0-.066 2.597c0 4.817.574 9.586 1.707 14.247zm137.871-24.118c6.629 2.934 11.61 8.915 13.129 16.153h-18.074a59.784 59.784 0 0 0 4.945-16.153zm58.25-54.289a30.351 30.351 0 0 1-15.348 4.172 30.378 30.378 0 0 1-13.289-3.062 30.168 30.168 0 0 1 14.89-24.39 30.351 30.351 0 0 1 15.349-4.173c4.613 0 9.156 1.055 13.289 3.067a30.167 30.167 0 0 1-14.891 24.386zm0 0" data-original="#000000" class="active-path" data-old_color="#e96b17" fill="#e96b17"/><path d="M312.082 245.008a7.5 7.5 0 0 0 7.5-7.5v-12.93a7.5 7.5 0 1 0-15 0v12.93c0 4.14 3.36 7.5 7.5 7.5zm0 0M192.133 119.055a7.499 7.499 0 1 0-14.485 3.89l17.41 64.82a7.503 7.503 0 0 0 9.192 5.298 7.504 7.504 0 0 0 5.297-9.192zm0 0" data-original="#000000" class="active-path" data-old_color="#e96b17" fill="#e96b17"/></svg>